<svg xmlns="http://www.w3.org/2000/svg" viewBox="0 0 1600 900" width="1600" height="900" fill="none">
<line x1="0" y1="129" x2="1600" y2="129" stroke="#12314A" stroke-width="1"/>
<line x1="0" y1="257" x2="1600" y2="257" stroke="#12314A" stroke-width="1"/>
<line x1="0" y1="386" x2="1600" y2="386" stroke="#12314A" stroke-width="1"/>
<line x1="0" y1="514" x2="1600" y2="514" stroke="#12314A" stroke-width="1"/>
<line x1="0" y1="643" x2="1600" y2="643" stroke="#12314A" stroke-width="1"/>
<line x1="0" y1="771" x2="1600" y2="771" stroke="#12314A" stroke-width="1"/>
<rect x="40.0" y="854.3" width="18.2" height="35.7" fill="#25506B" opacity="0.45"/>
<rect x="73.0" y="872.5" width="18.2" height="17.5" fill="#25506B" opacity="0.45"/>
<rect x="106.1" y="845.1" width="18.2" height="44.9" fill="#1FAE7C" opacity="0.45"/>
<rect x="139.1" y="854.7" width="18.2" height="35.3" fill="#1FAE7C" opacity="0.45"/>
<rect x="172.2" y="854.3" width="18.2" height="35.7" fill="#1FAE7C" opacity="0.45"/>
<rect x="205.2" y="840.3" width="18.2" height="49.7" fill="#1FAE7C" opacity="0.45"/>
<rect x="238.3" y="882.7" width="18.2" height="7.3" fill="#25506B" opacity="0.45"/>
<rect x="271.3" y="849.3" width="18.2" height="40.7" fill="#1FAE7C" opacity="0.45"/>
<rect x="304.3" y="810.7" width="18.2" height="79.3" fill="#25506B" opacity="0.45"/>
<rect x="337.4" y="825.3" width="18.2" height="64.7" fill="#25506B" opacity="0.45"/>
<rect x="370.4" y="845.3" width="18.2" height="44.7" fill="#1FAE7C" opacity="0.45"/>
<rect x="403.5" y="798.3" width="18.2" height="91.7" fill="#25506B" opacity="0.45"/>
<rect x="436.5" y="808.1" width="18.2" height="81.9" fill="#1FAE7C" opacity="0.45"/>
<rect x="469.6" y="846.0" width="18.2" height="44.0" fill="#25506B" opacity="0.45"/>
<rect x="502.6" y="740.0" width="18.2" height="150.0" fill="#1FAE7C" opacity="0.45"/>
<rect x="535.7" y="863.3" width="18.2" height="26.7" fill="#25506B" opacity="0.45"/>
<rect x="568.7" y="856.0" width="18.2" height="34.0" fill="#1FAE7C" opacity="0.45"/>
<rect x="601.7" y="858.6" width="18.2" height="31.4" fill="#25506B" opacity="0.45"/>
<rect x="634.8" y="794.3" width="18.2" height="95.7" fill="#25506B" opacity="0.45"/>
<rect x="667.8" y="805.8" width="18.2" height="84.2" fill="#25506B" opacity="0.45"/>
<rect x="700.9" y="813.4" width="18.2" height="76.6" fill="#1FAE7C" opacity="0.45"/>
<rect x="733.9" y="846.0" width="18.2" height="44.0" fill="#25506B" opacity="0.45"/>
<rect x="767.0" y="857.3" width="18.2" height="32.7" fill="#1FAE7C" opacity="0.45"/>
<rect x="800.0" y="765.1" width="18.2" height="124.9" fill="#1FAE7C" opacity="0.45"/>
<rect x="833.0" y="847.3" width="18.2" height="42.7" fill="#25506B" opacity="0.45"/>
<rect x="866.1" y="851.6" width="18.2" height="38.4" fill="#1FAE7C" opacity="0.45"/>
<rect x="899.1" y="862.5" width="18.2" height="27.5" fill="#1FAE7C" opacity="0.45"/>
<rect x="932.2" y="847.7" width="18.2" height="42.3" fill="#1FAE7C" opacity="0.45"/>
<rect x="965.2" y="751.7" width="18.2" height="138.3" fill="#25506B" opacity="0.45"/>
<rect x="998.3" y="854.0" width="18.2" height="36.0" fill="#25506B" opacity="0.45"/>
<rect x="1031.3" y="852.8" width="18.2" height="37.2" fill="#1FAE7C" opacity="0.45"/>
<rect x="1064.3" y="842.1" width="18.2" height="47.9" fill="#1FAE7C" opacity="0.45"/>
<rect x="1097.4" y="838.8" width="18.2" height="51.2" fill="#1FAE7C" opacity="0.45"/>
<rect x="1130.4" y="840.1" width="18.2" height="49.9" fill="#1FAE7C" opacity="0.45"/>
<rect x="1163.5" y="790.3" width="18.2" height="99.7" fill="#1FAE7C" opacity="0.45"/>
<rect x="1196.5" y="884.0" width="18.2" height="6.0" fill="#1FAE7C" opacity="0.45"/>
<rect x="1229.6" y="780.9" width="18.2" height="109.1" fill="#1FAE7C" opacity="0.45"/>
<rect x="1262.6" y="867.0" width="18.2" height="23.0" fill="#25506B" opacity="0.45"/>
<rect x="1295.7" y="835.7" width="18.2" height="54.3" fill="#1FAE7C" opacity="0.45"/>
<rect x="1328.7" y="850.0" width="18.2" height="40.0" fill="#1FAE7C" opacity="0.45"/>
<rect x="1361.7" y="816.8" width="18.2" height="73.2" fill="#1FAE7C" opacity="0.45"/>
<rect x="1394.8" y="817.9" width="18.2" height="72.1" fill="#25506B" opacity="0.45"/>
<rect x="1427.8" y="795.8" width="18.2" height="94.2" fill="#1FAE7C" opacity="0.45"/>
<rect x="1460.9" y="775.9" width="18.2" height="114.1" fill="#1FAE7C" opacity="0.45"/>
<rect x="1493.9" y="867.9" width="18.2" height="22.1" fill="#1FAE7C" opacity="0.45"/>
<rect x="1527.0" y="853.5" width="18.2" height="36.5" fill="#25506B" opacity="0.45"/>
<line x1="49.1" y1="377.1" x2="49.1" y2="383.6" stroke="#25506B" stroke-width="2"/>
<rect x="40.0" y="380.0" width="18.2" height="2.4" fill="#25506B"/>
<line x1="82.1" y1="380.9" x2="82.1" y2="386.0" stroke="#25506B" stroke-width="2"/>
<rect x="73.0" y="382.4" width="18.2" height="2.1" fill="#25506B"/>
<line x1="115.2" y1="380.3" x2="115.2" y2="393.9" stroke="#1FAE7C" stroke-width="2"/>
<rect x="106.1" y="381.3" width="18.2" height="3.2" fill="#1FAE7C"/>
<line x1="148.2" y1="371.7" x2="148.2" y2="388.3" stroke="#1FAE7C" stroke-width="2"/>
<rect x="139.1" y="379.5" width="18.2" height="2.0" fill="#1FAE7C"/>
<line x1="181.3" y1="376.9" x2="181.3" y2="382.5" stroke="#1FAE7C" stroke-width="2"/>
<rect x="172.2" y="377.1" width="18.2" height="2.4" fill="#1FAE7C"/>
<line x1="214.3" y1="368.7" x2="214.3" y2="378.6" stroke="#1FAE7C" stroke-width="2"/>
<rect x="205.2" y="371.9" width="18.2" height="5.2" fill="#1FAE7C"/>
<line x1="247.3" y1="367.8" x2="247.3" y2="379.3" stroke="#25506B" stroke-width="2"/>
<rect x="238.3" y="371.9" width="18.2" height="5.4" fill="#25506B"/>
<line x1="280.4" y1="365.9" x2="280.4" y2="381.8" stroke="#1FAE7C" stroke-width="2"/>
<rect x="271.3" y="374.1" width="18.2" height="3.3" fill="#1FAE7C"/>
<line x1="313.4" y1="372.7" x2="313.4" y2="383.5" stroke="#25506B" stroke-width="2"/>
<rect x="304.3" y="374.1" width="18.2" height="7.0" fill="#25506B"/>
<line x1="346.5" y1="378.0" x2="346.5" y2="397.0" stroke="#25506B" stroke-width="2"/>
<rect x="337.4" y="381.1" width="18.2" height="9.4" fill="#25506B"/>
<line x1="379.5" y1="386.2" x2="379.5" y2="398.8" stroke="#1FAE7C" stroke-width="2"/>
<rect x="370.4" y="386.5" width="18.2" height="4.0" fill="#1FAE7C"/>
<line x1="412.6" y1="386.4" x2="412.6" y2="393.8" stroke="#25506B" stroke-width="2"/>
<rect x="403.5" y="386.5" width="18.2" height="2.6" fill="#25506B"/>
<line x1="445.6" y1="380.6" x2="445.6" y2="391.6" stroke="#1FAE7C" stroke-width="2"/>
<rect x="436.5" y="384.1" width="18.2" height="5.0" fill="#1FAE7C"/>
<line x1="478.7" y1="381.1" x2="478.7" y2="405.9" stroke="#25506B" stroke-width="2"/>
<rect x="469.6" y="384.1" width="18.2" height="15.8" fill="#25506B"/>
<line x1="511.7" y1="384.5" x2="511.7" y2="410.6" stroke="#1FAE7C" stroke-width="2"/>
<rect x="502.6" y="387.8" width="18.2" height="12.0" fill="#1FAE7C"/>
<line x1="544.7" y1="382.4" x2="544.7" y2="390.4" stroke="#25506B" stroke-width="2"/>
<rect x="535.7" y="387.8" width="18.2" height="2.0" fill="#25506B"/>
<line x1="577.8" y1="385.5" x2="577.8" y2="398.8" stroke="#1FAE7C" stroke-width="2"/>
<rect x="568.7" y="387.9" width="18.2" height="2.0" fill="#1FAE7C"/>
<line x1="610.8" y1="382.3" x2="610.8" y2="389.6" stroke="#25506B" stroke-width="2"/>
<rect x="601.7" y="387.9" width="18.2" height="2.0" fill="#25506B"/>
<line x1="643.9" y1="384.4" x2="643.9" y2="409.6" stroke="#25506B" stroke-width="2"/>
<rect x="634.8" y="388.0" width="18.2" height="16.9" fill="#25506B"/>
<line x1="676.9" y1="402.2" x2="676.9" y2="422.6" stroke="#25506B" stroke-width="2"/>
<rect x="667.8" y="404.9" width="18.2" height="7.1" fill="#25506B"/>
<line x1="710.0" y1="405.7" x2="710.0" y2="412.6" stroke="#1FAE7C" stroke-width="2"/>
<rect x="700.9" y="409.4" width="18.2" height="2.6" fill="#1FAE7C"/>
<line x1="743.0" y1="408.9" x2="743.0" y2="414.4" stroke="#25506B" stroke-width="2"/>
<rect x="733.9" y="409.4" width="18.2" height="2.0" fill="#25506B"/>
<line x1="776.0" y1="394.9" x2="776.0" y2="417.4" stroke="#1FAE7C" stroke-width="2"/>
<rect x="767.0" y="397.4" width="18.2" height="12.2" fill="#1FAE7C"/>
<line x1="809.1" y1="376.4" x2="809.1" y2="399.6" stroke="#1FAE7C" stroke-width="2"/>
<rect x="800.0" y="380.5" width="18.2" height="16.9" fill="#1FAE7C"/>
<line x1="842.1" y1="376.9" x2="842.1" y2="393.7" stroke="#25506B" stroke-width="2"/>
<rect x="833.0" y="380.5" width="18.2" height="6.9" fill="#25506B"/>
<line x1="875.2" y1="380.6" x2="875.2" y2="390.0" stroke="#1FAE7C" stroke-width="2"/>
<rect x="866.1" y="382.2" width="18.2" height="5.1" fill="#1FAE7C"/>
<line x1="908.2" y1="376.5" x2="908.2" y2="386.6" stroke="#1FAE7C" stroke-width="2"/>
<rect x="899.1" y="376.5" width="18.2" height="5.7" fill="#1FAE7C"/>
<line x1="941.3" y1="361.9" x2="941.3" y2="379.1" stroke="#1FAE7C" stroke-width="2"/>
<rect x="932.2" y="367.5" width="18.2" height="9.1" fill="#1FAE7C"/>
<line x1="974.3" y1="365.3" x2="974.3" y2="379.8" stroke="#25506B" stroke-width="2"/>
<rect x="965.2" y="367.5" width="18.2" height="2.0" fill="#25506B"/>
<line x1="1007.3" y1="369.2" x2="1007.3" y2="376.3" stroke="#25506B" stroke-width="2"/>
<rect x="998.3" y="369.5" width="18.2" height="2.7" fill="#25506B"/>
<line x1="1040.4" y1="366.0" x2="1040.4" y2="385.9" stroke="#1FAE7C" stroke-width="2"/>
<rect x="1031.3" y="369.0" width="18.2" height="3.2" fill="#1FAE7C"/>
<line x1="1073.4" y1="356.1" x2="1073.4" y2="375.8" stroke="#1FAE7C" stroke-width="2"/>
<rect x="1064.3" y="361.7" width="18.2" height="7.3" fill="#1FAE7C"/>
<line x1="1106.5" y1="345.7" x2="1106.5" y2="362.1" stroke="#1FAE7C" stroke-width="2"/>
<rect x="1097.4" y="352.3" width="18.2" height="9.4" fill="#1FAE7C"/>
<line x1="1139.5" y1="343.1" x2="1139.5" y2="353.2" stroke="#1FAE7C" stroke-width="2"/>
<rect x="1130.4" y="350.0" width="18.2" height="2.3" fill="#1FAE7C"/>
<line x1="1172.6" y1="324.8" x2="1172.6" y2="356.2" stroke="#1FAE7C" stroke-width="2"/>
<rect x="1163.5" y="339.9" width="18.2" height="10.1" fill="#1FAE7C"/>
<line x1="1205.6" y1="335.4" x2="1205.6" y2="345.2" stroke="#1FAE7C" stroke-width="2"/>
<rect x="1196.5" y="339.5" width="18.2" height="2.0" fill="#1FAE7C"/>
<line x1="1238.7" y1="331.1" x2="1238.7" y2="340.0" stroke="#1FAE7C" stroke-width="2"/>
<rect x="1229.6" y="331.9" width="18.2" height="7.6" fill="#1FAE7C"/>
<line x1="1271.7" y1="327.5" x2="1271.7" y2="363.9" stroke="#25506B" stroke-width="2"/>
<rect x="1262.6" y="331.9" width="18.2" height="18.0" fill="#25506B"/>
<line x1="1304.7" y1="343.9" x2="1304.7" y2="351.1" stroke="#1FAE7C" stroke-width="2"/>
<rect x="1295.7" y="347.9" width="18.2" height="2.0" fill="#1FAE7C"/>
<line x1="1337.8" y1="327.5" x2="1337.8" y2="356.0" stroke="#1FAE7C" stroke-width="2"/>
<rect x="1328.7" y="333.9" width="18.2" height="14.0" fill="#1FAE7C"/>
<line x1="1370.8" y1="318.1" x2="1370.8" y2="342.2" stroke="#1FAE7C" stroke-width="2"/>
<rect x="1361.7" y="322.3" width="18.2" height="11.6" fill="#1FAE7C"/>
<line x1="1403.9" y1="321.8" x2="1403.9" y2="328.0" stroke="#25506B" stroke-width="2"/>
<rect x="1394.8" y="322.3" width="18.2" height="4.4" fill="#25506B"/>
<line x1="1436.9" y1="316.5" x2="1436.9" y2="337.9" stroke="#1FAE7C" stroke-width="2"/>
<rect x="1427.8" y="317.5" width="18.2" height="9.2" fill="#1FAE7C"/>
<line x1="1470.0" y1="312.0" x2="1470.0" y2="324.6" stroke="#1FAE7C" stroke-width="2"/>
<rect x="1460.9" y="314.5" width="18.2" height="3.0" fill="#1FAE7C"/>
<line x1="1503.0" y1="295.7" x2="1503.0" y2="322.7" stroke="#1FAE7C" stroke-width="2"/>
<rect x="1493.9" y="304.1" width="18.2" height="10.5" fill="#1FAE7C"/>
<line x1="1536.0" y1="303.2" x2="1536.0" y2="322.5" stroke="#25506B" stroke-width="2"/>
<rect x="1527.0" y="304.1" width="18.2" height="3.4" fill="#25506B"/>
</svg>